<svg width="20.000000" height="20.000000" viewBox="0 0 20 20" fill="none" xmlns="http://www.w3.org/2000/svg" xmlns:xlink="http://www.w3.org/1999/xlink">
	<desc>
			Created with Pixso.
	</desc>
	<defs>
		<clipPath id="clip59_20">
			<rect id="clarity:shopping-bag-line" width="20.000000" height="20.000000" fill="white" fill-opacity="0"/>
		</clipPath>
	</defs>
	<rect id="clarity:shopping-bag-line" width="20.000000" height="20.000000" fill="#FFFFFF" fill-opacity="0"/>
	<g clip-path="url(#clip59_20)">
		<path id="Vector" d="M13.8896 6.66669L13.8896 5.02783C13.8896 4.51709 13.7891 4.01141 13.5938 3.53961C13.3975 3.06775 13.1113 2.63904 12.75 2.27795C12.3896 1.91681 11.9609 1.63037 11.4883 1.43494C11.0166 1.2395 10.5107 1.13892 10 1.13892C9.48926 1.13892 8.98438 1.2395 8.5127 1.43494C8.04004 1.63037 7.61133 1.91681 7.25098 2.27795C6.88965 2.63904 6.60254 3.06775 6.40723 3.53961C6.21191 4.01141 6.11133 4.51709 6.11133 5.02783L6.11133 8.91669C6.11133 9.06403 6.16992 9.20532 6.27441 9.30951C6.37891 9.4137 6.51953 9.47223 6.66699 9.47223C6.81445 9.47223 6.95605 9.4137 7.05957 9.30951C7.16406 9.20532 7.22266 9.06403 7.22266 8.91669L7.22266 7.77783L11.667 7.77783L11.667 6.66669L7.22266 6.66669L7.22266 5.02783C7.22266 4.29108 7.51562 3.58453 8.03613 3.0636C8.55762 2.54266 9.26367 2.25 10 2.25C10.7373 2.25 11.4434 2.54266 11.9648 3.0636C12.4854 3.58453 12.7783 4.29108 12.7783 5.02783L12.7783 8.88892C12.7783 9.03625 12.8369 9.17755 12.9414 9.28174C13.0449 9.38593 13.1865 9.44446 13.334 9.44446C13.4814 9.44446 13.6221 9.38593 13.7266 9.28174C13.8311 9.17755 13.8896 9.03625 13.8896 8.88892L13.8896 7.77783L16.667 7.77783L16.667 17.7778L3.33398 17.7778L3.33398 7.77783L5 7.77783L5 6.66669L2.22266 6.66669L2.22266 17.8278C2.22266 18.1093 2.33398 18.3792 2.5332 18.5781C2.73242 18.7771 3.00195 18.8889 3.28418 18.8889L16.7168 18.8889C16.998 18.8889 17.2686 18.7771 17.4678 18.5781C17.666 18.3792 17.7783 18.1093 17.7783 17.8278L17.7783 6.66669L13.8896 6.66669Z" fill="#121212" fill-opacity="1.000000" fill-rule="nonzero"/>
	</g>
</svg>
