<svg width="36.000000" height="36.000000" viewBox="0 0 36 36" fill="none" xmlns="http://www.w3.org/2000/svg" xmlns:xlink="http://www.w3.org/1999/xlink">
	<desc>
			Created with Pixso.
	</desc>
	<defs>
		<clipPath id="clip133_20">
			<rect id="clarity:chat-bubble-line" width="36.000000" height="36.000000" fill="white" fill-opacity="0"/>
		</clipPath>
	</defs>
	<rect id="clarity:chat-bubble-line" width="36.000000" height="36.000000" fill="#FFFFFF" fill-opacity="0"/>
	<g clip-path="url(#clip133_20)">
		<path id="Vector" d="M18 2.5C9.17969 2.5 2 8.78003 2 16.5C2 24.22 9.17969 30.5 18 30.5C19.6504 30.498 21.292 30.2693 22.8799 29.8201L28.4102 33.3401C28.5605 33.4368 28.7354 33.4912 28.9141 33.4978C29.0938 33.5042 29.2715 33.4622 29.4287 33.3762C29.5859 33.2903 29.7178 33.1636 29.8096 33.0095C29.9014 32.8555 29.9492 32.6794 29.9502 32.5L29.9502 25.77C31.2012 24.5696 32.2002 23.1311 32.8867 21.5391C33.5732 19.9473 33.9355 18.2339 33.9502 16.5C34 8.78003 26.8203 2.5 18 2.5ZM28.29 24.6101C28.1895 24.7031 28.1094 24.8162 28.0537 24.9417C27.999 25.0674 27.9707 25.2029 27.9697 25.3401L27.9697 30.6799L23.5898 27.8899C23.4678 27.8127 23.3301 27.7629 23.1875 27.7439C23.0439 27.7249 22.8984 27.7373 22.7598 27.78C21.2188 28.2588 19.6143 28.5015 18 28.5C10.2803 28.5 4 23.1201 4 16.5C4 9.87988 10.2803 4.5 18 4.5C25.7197 4.5 32 9.87988 32 16.5C31.9775 18.0352 31.6357 19.5486 30.9971 20.9448C30.3584 22.3408 29.4365 23.5889 28.29 24.6101Z" fill="#FFFDF5" fill-opacity="1.000000" fill-rule="nonzero"/>
		<path id="Vector" d="M25 15.5L11 15.5C10.7344 15.5 10.4805 15.6055 10.293 15.793C10.1055 15.9805 10 16.2349 10 16.5C10 16.7651 10.1055 17.0195 10.293 17.207C10.4805 17.3945 10.7344 17.5 11 17.5L25 17.5C25.2656 17.5 25.5195 17.3945 25.707 17.207C25.8945 17.0195 26 16.7651 26 16.5C26 16.2349 25.8945 15.9805 25.707 15.793C25.5195 15.6055 25.2656 15.5 25 15.5Z" fill="#FFFDF5" fill-opacity="1.000000" fill-rule="nonzero"/>
		<path id="Vector" d="M21.75 20.5L14.25 20.5C13.9844 20.5 13.7305 20.6055 13.543 20.793C13.3555 20.9805 13.25 21.2349 13.25 21.5C13.25 21.7651 13.3555 22.0195 13.543 22.207C13.7305 22.3945 13.9844 22.5 14.25 22.5L21.75 22.5C22.0156 22.5 22.2695 22.3945 22.457 22.207C22.6445 22.0195 22.75 21.7651 22.75 21.5C22.75 21.2349 22.6445 20.9805 22.457 20.793C22.2695 20.6055 22.0156 20.5 21.75 20.5Z" fill="#FFFDF5" fill-opacity="1.000000" fill-rule="nonzero"/>
		<path id="Vector" d="M11.2803 12.5L24.7207 12.5C24.9854 12.5 25.2402 12.3945 25.4277 12.207C25.6152 12.0195 25.7207 11.7651 25.7207 11.5C25.7207 11.2349 25.6152 10.9805 25.4277 10.793C25.2402 10.6055 24.9854 10.5 24.7207 10.5L11.2803 10.5C11.0146 10.5 10.7607 10.6055 10.5732 10.793C10.3857 10.9805 10.2803 11.2349 10.2803 11.5C10.2803 11.7651 10.3857 12.0195 10.5732 12.207C10.7607 12.3945 11.0146 12.5 11.2803 12.5Z" fill="#FFFDF5" fill-opacity="1.000000" fill-rule="nonzero"/>
	</g>
</svg>
