<svg width="30.000000" height="30.000000" viewBox="0 0 30 30" fill="none" xmlns="http://www.w3.org/2000/svg" xmlns:xlink="http://www.w3.org/1999/xlink">
	<desc>
			Created with Pixso.
	</desc>
	<defs>
		<clipPath id="clip169_1983">
			<rect id="clarity:coin-bag-line" width="30.000000" height="30.000000" fill="white" fill-opacity="0"/>
		</clipPath>
	</defs>
	<rect id="clarity:coin-bag-line" width="30.000000" height="30.000000" fill="#FFFFFF" fill-opacity="0"/>
	<g clip-path="url(#clip169_1983)">
		<path id="Vector" d="M18.001 24.167C18.001 23.9458 17.9131 23.7339 17.7568 23.5776C17.6006 23.4214 17.3887 23.3335 17.167 23.3335L12.167 23.3335C11.9463 23.3335 11.7344 23.4214 11.5781 23.5776C11.4219 23.7339 11.334 23.9458 11.334 24.167C11.334 24.3877 11.4219 24.5996 11.5781 24.7559C11.7344 24.9126 11.9463 25 12.167 25L17.167 25C17.3887 25 17.6006 24.9126 17.7568 24.7559C17.9131 24.5996 18.001 24.3877 18.001 24.167Z" fill="#514A7E" fill-opacity="1.000000" fill-rule="nonzero"/>
		<path id="Vector" d="M18.7832 20L13.7832 20C13.5625 20 13.3506 20.0879 13.1943 20.2441C13.0381 20.4004 12.9502 20.6123 12.9502 20.8335C12.9502 21.0542 13.0381 21.2661 13.1943 21.4224C13.3506 21.5791 13.5625 21.6665 13.7832 21.6665L18.7832 21.6665C19.0049 21.6665 19.2168 21.5791 19.373 21.4224C19.5293 21.2661 19.6172 21.0542 19.6172 20.8335C19.6172 20.6123 19.5293 20.4004 19.373 20.2441C19.2168 20.0879 19.0049 20 18.7832 20Z" fill="#514A7E" fill-opacity="1.000000" fill-rule="nonzero"/>
		<path id="Vector" d="M18.333 26.6665L13.333 26.6665C13.1123 26.6665 12.9004 26.7544 12.7441 26.9106C12.5879 27.0669 12.5 27.2788 12.5 27.5C12.5 27.7207 12.5879 27.9326 12.7441 28.0889C12.9004 28.2456 13.1123 28.333 13.333 28.333L18.333 28.333C18.5547 28.333 18.7666 28.2456 18.9229 28.0889C19.0791 27.9326 19.167 27.7207 19.167 27.5C19.167 27.2788 19.0791 27.0669 18.9229 26.9106C18.7666 26.7544 18.5547 26.6665 18.333 26.6665Z" fill="#514A7E" fill-opacity="1.000000" fill-rule="nonzero"/>
		<path id="Vector" d="M27.25 26.6665L21.416 26.6665C21.1953 26.6665 20.9834 26.7544 20.8271 26.9106C20.6709 27.0669 20.583 27.2788 20.583 27.5C20.583 27.7207 20.6709 27.9326 20.8271 28.0889C20.9834 28.2456 21.1953 28.333 21.416 28.333L27.25 28.333C27.4707 28.333 27.6826 28.2456 27.8389 28.0889C27.9951 27.9326 28.083 27.7207 28.083 27.5C28.083 27.2788 27.9951 27.0669 27.8389 26.9106C27.6826 26.7544 27.4707 26.6665 27.25 26.6665Z" fill="#514A7E" fill-opacity="1.000000" fill-rule="nonzero"/>
		<path id="Vector" d="M28.083 23.3335L22.249 23.3335C22.0283 23.3335 21.8164 23.4214 21.6602 23.5776C21.5039 23.7339 21.416 23.9458 21.416 24.167C21.416 24.3877 21.5039 24.5996 21.6602 24.7559C21.8164 24.9126 22.0283 25 22.249 25L28.083 25C28.3037 25 28.5156 24.9126 28.6719 24.7559C28.8281 24.5996 28.916 24.3877 28.916 24.167C28.916 23.9458 28.8281 23.7339 28.6719 23.5776C28.5156 23.4214 28.3037 23.3335 28.083 23.3335Z" fill="#514A7E" fill-opacity="1.000000" fill-rule="nonzero"/>
		<path id="Vector" d="M28.1162 21.667C27.8721 18.7329 27.0742 15.8711 25.7666 13.2339C24.5127 10.8501 22.707 8.80127 20.5 7.25879L22.5 2.8501C22.5645 2.71875 22.5928 2.57227 22.582 2.42578C22.5723 2.2793 22.5234 2.13867 22.4414 2.01709C22.3652 1.91064 22.2656 1.82324 22.1494 1.76221C22.0342 1.70166 21.9053 1.66895 21.7744 1.66699L8.16602 1.66699C8.02637 1.6665 7.88867 1.70166 7.76562 1.76855C7.64258 1.83594 7.53809 1.93262 7.46289 2.05078C7.38672 2.16846 7.34277 2.30371 7.33301 2.44336C7.32324 2.5835 7.34863 2.72314 7.4082 2.8501L9.44922 7.27539C7.25781 8.81934 5.46484 10.8613 4.21582 13.2339C2.4248 16.5669 1.86621 20.6421 1.71582 23.4668C1.69141 23.8804 1.75293 24.2949 1.89648 24.6836C2.04004 25.0723 2.2627 25.4268 2.5498 25.7251C2.85156 26.0186 3.20898 26.2485 3.60156 26.4019C3.99316 26.5547 4.41211 26.6279 4.83301 26.6172L10 26.6172L10 25.0005L4.7666 25.0005C4.57715 24.9995 4.39062 24.9609 4.21777 24.8867C4.04492 24.812 3.8877 24.7036 3.75781 24.5669C3.62793 24.4316 3.52637 24.2705 3.46191 24.0942C3.39746 23.9175 3.37012 23.7295 3.38281 23.542C3.5 21.3672 3.95801 17.2251 5.68262 14.0005C6.89844 11.6895 8.69727 9.73633 10.8994 8.3335L11.7324 8.3335C11.168 9.11475 10.6475 9.92725 10.1748 10.7671C9.69238 11.6606 9.2832 12.5913 8.94922 13.5503L10.0908 14.3169C10.4287 13.3218 10.8438 12.355 11.333 11.4253C11.9336 10.3442 12.6162 9.31055 13.375 8.3335L14.208 8.3335C14.7666 9.66992 15.1611 11.0688 15.3828 12.5005C15.5635 13.563 15.6533 14.6392 15.6494 15.7168L16.9658 14.792C16.9297 13.9541 16.8408 13.1191 16.6992 12.292C16.4756 10.9404 16.1182 9.61475 15.6328 8.3335L16.2832 8.3335L17.041 6.66699L11.0078 6.66699L9.46582 3.3335L20.4746 3.3335L18.3916 7.89209C18.748 8.0835 19.0908 8.30029 19.416 8.54199C21.458 9.95068 23.1328 11.8281 24.2998 14.0171C25.4688 16.417 26.1943 19.0088 26.4414 21.667L28.1162 21.667Z" fill="#514A7E" fill-opacity="1.000000" fill-rule="nonzero"/>
	</g>
</svg>
