<svg width="20.000000" height="20.000000" viewBox="0 0 20 20" fill="none" xmlns="http://www.w3.org/2000/svg" xmlns:xlink="http://www.w3.org/1999/xlink">
	<desc>
			Created with Pixso.
	</desc>
	<defs>
		<clipPath id="clip59_102">
			<rect id="clarity:plus-line" width="20.000000" height="20.000000" fill="white" fill-opacity="0"/>
		</clipPath>
	</defs>
	<rect id="clarity:plus-line" width="20.000000" height="20.000000" fill="#FFFFFF" fill-opacity="0"/>
	<g clip-path="url(#clip59_102)">
		<path id="Vector" d="M16.667 9.44458L10.5557 9.44458L10.5557 3.3335C10.5557 3.18604 10.4971 3.04468 10.3926 2.94043C10.2891 2.83643 10.1475 2.77783 10 2.77783C9.85254 2.77783 9.71094 2.83643 9.60742 2.94043C9.50293 3.04468 9.44434 3.18604 9.44434 3.3335L9.44434 9.44458L3.33301 9.44458C3.18555 9.44458 3.04492 9.50293 2.94043 9.60718C2.83594 9.71143 2.77734 9.85278 2.77734 10C2.77539 10.0723 2.78809 10.1443 2.81543 10.2112C2.84277 10.2778 2.88379 10.3381 2.93652 10.3877C2.98926 10.437 3.05176 10.4746 3.12012 10.498C3.18848 10.5212 3.26172 10.5295 3.33301 10.5222L9.44434 10.5222L9.44434 16.6667C9.44434 16.814 9.50293 16.9553 9.60742 17.0596C9.71094 17.1638 9.85254 17.2222 10 17.2222C10.1475 17.2222 10.2891 17.1638 10.3926 17.0596C10.4971 16.9553 10.5557 16.814 10.5557 16.6667L10.5557 10.5557L16.667 10.5557C16.8135 10.5557 16.9551 10.4971 17.0596 10.3928C17.1641 10.2888 17.2217 10.1475 17.2217 10C17.2217 9.85278 17.1641 9.71143 17.0596 9.60718C16.9551 9.50293 16.8135 9.44458 16.667 9.44458Z" fill="#514A7E" fill-opacity="1.000000" fill-rule="nonzero"/>
	</g>
</svg>
