<svg width="30.000000" height="30.000000" viewBox="0 0 30 30" fill="none" xmlns="http://www.w3.org/2000/svg" xmlns:xlink="http://www.w3.org/1999/xlink">
	<desc>
			Created with Pixso.
	</desc>
	<defs>
		<clipPath id="clip169_1971">
			<rect id="clarity:list-line" width="30.000000" height="30.000000" fill="white" fill-opacity="0"/>
		</clipPath>
	</defs>
	<rect id="clarity:list-line" width="30.000000" height="30.000000" fill="#FFFFFF" fill-opacity="0"/>
	<g clip-path="url(#clip169_1971)">
		<path id="Vector" d="M12.5 6.6665L20 6.6665L20 8.33301L12.5 8.33301L12.5 6.6665Z" fill="#514A7E" fill-opacity="1.000000" fill-rule="nonzero"/>
		<path id="Vector" d="M12.5 10L20 10L20 11.6665L12.5 11.6665L12.5 10Z" fill="#514A7E" fill-opacity="1.000000" fill-rule="nonzero"/>
		<path id="Vector" d="M12.5 13.333L20 13.333L20 14.9995L12.5 14.9995L12.5 13.333Z" fill="#514A7E" fill-opacity="1.000000" fill-rule="nonzero"/>
		<path id="Vector" d="M12.5 16.667L20 16.667L20 18.3335L12.5 18.3335L12.5 16.667Z" fill="#514A7E" fill-opacity="1.000000" fill-rule="nonzero"/>
		<path id="Vector" d="M12.5 20L20 20L20 21.6665L12.5 21.6665L12.5 20Z" fill="#514A7E" fill-opacity="1.000000" fill-rule="nonzero"/>
		<path id="Vector" d="M9.16699 6.6665L10.834 6.6665L10.834 8.33301L9.16699 8.33301L9.16699 6.6665Z" fill="#514A7E" fill-opacity="1.000000" fill-rule="nonzero"/>
		<path id="Vector" d="M9.16699 10L10.834 10L10.834 11.6665L9.16699 11.6665L9.16699 10Z" fill="#514A7E" fill-opacity="1.000000" fill-rule="nonzero"/>
		<path id="Vector" d="M9.16699 13.333L10.834 13.333L10.834 14.9995L9.16699 14.9995L9.16699 13.333Z" fill="#514A7E" fill-opacity="1.000000" fill-rule="nonzero"/>
		<path id="Vector" d="M9.16699 16.667L10.834 16.667L10.834 18.3335L9.16699 18.3335L9.16699 16.667Z" fill="#514A7E" fill-opacity="1.000000" fill-rule="nonzero"/>
		<path id="Vector" d="M9.16699 20L10.834 20L10.834 21.6665L9.16699 21.6665L9.16699 20Z" fill="#514A7E" fill-opacity="1.000000" fill-rule="nonzero"/>
		<path id="Vector" d="M23.333 1.66699L6.66699 1.66699C6.22461 1.66699 5.80078 1.84277 5.48828 2.15527C5.17578 2.46777 5 2.8916 5 3.3335L5 26.667C5 27.1089 5.17578 27.5327 5.48828 27.8457C5.80078 28.1582 6.22461 28.3335 6.66699 28.3335L23.333 28.3335C23.7754 28.3335 24.1992 28.1582 24.5117 27.8457C24.8242 27.5327 25 27.1089 25 26.667L25 3.3335C25 2.8916 24.8242 2.46777 24.5117 2.15527C24.1992 1.84277 23.7754 1.66699 23.333 1.66699ZM23.333 26.667L6.66699 26.667L6.66699 3.3335L23.333 3.3335L23.333 26.667Z" fill="#514A7E" fill-opacity="1.000000" fill-rule="nonzero"/>
	</g>
</svg>
