<svg width="30.000000" height="30.000000" viewBox="0 0 30 30" fill="none" xmlns="http://www.w3.org/2000/svg" xmlns:xlink="http://www.w3.org/1999/xlink">
	<desc>
			Created with Pixso.
	</desc>
	<defs>
		<clipPath id="clip169_1957">
			<rect id="clarity:cog-line" width="30.000000" height="30.000000" fill="white" fill-opacity="0"/>
		</clipPath>
	</defs>
	<rect id="clarity:cog-line" width="30.000000" height="30.000000" fill="#FFFFFF" fill-opacity="0"/>
	<g clip-path="url(#clip169_1957)">
		<path id="Vector" d="M15.083 9.16699C11.833 9.16699 9.25 11.7505 9.25 15.0005C9.25 18.2505 11.833 20.8335 15.083 20.8335C18.333 20.8335 20.917 18.2505 20.917 15.0005C20.917 11.7505 18.333 9.16699 15.083 9.16699ZM15.083 19.167C12.75 19.167 10.917 17.3335 10.917 15.0005C10.917 12.667 12.75 10.8335 15.083 10.8335C17.417 10.8335 19.25 12.667 19.25 15.0005C19.25 17.3335 17.417 19.167 15.083 19.167Z" fill="#514A7E" fill-opacity="1.000000" fill-rule="nonzero"/>
		<path id="Vector" d="M27.334 12.2505L25 11.5005L24.5 10.2505L25.667 8.0835C25.917 7.5835 25.834 6.91699 25.417 6.50049L23.417 4.50049C23 4.0835 22.334 4.00049 21.834 4.25049L19.667 5.41699L18.417 4.91699L17.667 2.5835C17.5 2.0835 17 1.66699 16.417 1.66699L13.584 1.66699C13 1.66699 12.5 2.0835 12.417 2.66699L11.667 5.00049C11.167 5.0835 10.75 5.25049 10.334 5.50049L8.16699 4.3335C7.66699 4.0835 7 4.16699 6.58398 4.5835L4.58398 6.5835C4.16699 7.00049 4.08398 7.66699 4.33398 8.16699L5.41699 10.2505C5.25 10.667 5.08398 11.167 4.91699 11.5835L2.58398 12.3335C2.08398 12.5005 1.66699 13.0005 1.66699 13.5835L1.66699 16.417C1.66699 17.0005 2.08398 17.5005 2.66699 17.667L5 18.417L5.5 19.667L4.33398 21.8335C4.08398 22.3335 4.16699 23.0005 4.58398 23.417L6.58398 25.417C7 25.8335 7.66699 25.917 8.16699 25.667L10.334 24.5005L11.584 25.0005L12.334 27.417C12.5 27.917 13 28.3335 13.584 28.3335L16.417 28.3335C17 28.3335 17.5 27.917 17.667 27.417L18.417 25.0005L19.667 24.5005L21.834 25.667C22.334 25.917 23 25.8335 23.417 25.417L25.417 23.417C25.834 23.0005 25.917 22.3335 25.667 21.8335L24.5 19.667L25 18.417L27.417 17.667C27.917 17.5005 28.334 17.0005 28.334 16.417L28.334 13.5835C28.334 13.0005 27.917 12.417 27.334 12.2505ZM26.667 16.167L23.667 17.0835L23.584 17.5005L22.834 19.2505L22.584 19.667L24.084 22.417L22.417 24.0835L19.667 22.5835L19.25 22.8335C18.667 23.167 18.084 23.417 17.5 23.5835L17.084 23.667L16.167 26.667L13.834 26.667L12.917 23.667L12.5 23.5835L10.75 22.8335L10.334 22.5835L7.58398 24.0835L5.91699 22.417L7.41699 19.667L7.16699 19.2505C6.83398 18.667 6.58398 18.0835 6.41699 17.5005L6.33398 17.0835L3.33398 16.167L3.33398 13.8335L6.16699 13.0005L6.33398 12.5835C6.5 11.917 6.75 11.3335 7.08398 10.7505L7.33398 10.3335L5.91699 7.5835L7.58398 5.91699L10.25 7.41699L10.667 7.16699C11.25 6.8335 11.834 6.5835 12.5 6.41699L12.917 6.25049L13.834 3.3335L16.167 3.3335L17.084 6.25049L17.5 6.41699C18.084 6.5835 18.667 6.8335 19.25 7.16699L19.667 7.41699L22.417 5.91699L24.084 7.5835L22.584 10.3335L22.834 10.7505C23.167 11.3335 23.417 11.917 23.584 12.5005L23.667 12.917L26.667 13.8335L26.667 16.167Z" fill="#514A7E" fill-opacity="1.000000" fill-rule="nonzero"/>
	</g>
</svg>
