<svg width="36.000000" height="36.000000" viewBox="0 0 36 36" fill="none" xmlns="http://www.w3.org/2000/svg" xmlns:xlink="http://www.w3.org/1999/xlink">
	<desc>
			Created with Pixso.
	</desc>
	<defs>
		<clipPath id="clip59_27">
			<rect id="clarity:menu-line" width="36.000000" height="36.000000" fill="white" fill-opacity="0"/>
		</clipPath>
	</defs>
	<rect id="clarity:menu-line" width="36.000000" height="36.000000" fill="#FFFFFF" fill-opacity="0"/>
	<g clip-path="url(#clip59_27)">
		<path id="Vector" d="M32 29L4 29C3.73438 29 3.48047 28.8947 3.29297 28.7071C3.10547 28.5196 3 28.2652 3 28C3 27.7348 3.10547 27.4804 3.29297 27.2929C3.48047 27.1053 3.73438 27 4 27L32 27C32.2656 27 32.5195 27.1053 32.707 27.2929C32.8945 27.4804 33 27.7348 33 28C33 28.2652 32.8945 28.5196 32.707 28.7071C32.5195 28.8947 32.2656 29 32 29Z" fill="#121212" fill-opacity="1.000000" fill-rule="nonzero"/>
		<path id="Vector" d="M32 19L4 19C3.73438 19 3.48047 18.8947 3.29297 18.7071C3.10547 18.5196 3 18.2652 3 18C3 17.7348 3.10547 17.4804 3.29297 17.2929C3.48047 17.1053 3.73438 17 4 17L32 17C32.2656 17 32.5195 17.1053 32.707 17.2929C32.8945 17.4804 33 17.7348 33 18C33 18.2652 32.8945 18.5196 32.707 18.7071C32.5195 18.8947 32.2656 19 32 19Z" fill="#121212" fill-opacity="1.000000" fill-rule="nonzero"/>
		<path id="Vector" d="M32 9L4 9C3.73438 9 3.48047 8.89465 3.29297 8.70709C3.10547 8.51959 3 8.2652 3 8C3 7.7348 3.10547 7.48041 3.29297 7.29291C3.48047 7.10535 3.73438 7 4 7L32 7C32.2656 7 32.5195 7.10535 32.707 7.29291C32.8945 7.48041 33 7.7348 33 8C33 8.2652 32.8945 8.51959 32.707 8.70709C32.5195 8.89465 32.2656 9 32 9Z" fill="#121212" fill-opacity="1.000000" fill-rule="nonzero"/>
	</g>
</svg>
