<svg width="20.000000" height="20.000000" viewBox="0 0 20 20" fill="none" xmlns="http://www.w3.org/2000/svg" xmlns:xlink="http://www.w3.org/1999/xlink">
	<desc>
			Created with Pixso.
	</desc>
	<defs>
		<clipPath id="clip59_17">
			<rect id="clarity:search-line" width="20.000000" height="20.000000" fill="white" fill-opacity="0"/>
		</clipPath>
	</defs>
	<rect id="clarity:search-line" width="20.000000" height="20.000000" fill="#FFFFFF" fill-opacity="0"/>
	<g clip-path="url(#clip59_17)">
		<path id="Vector" d="M9.07227 2.8056C10.2754 2.8045 11.4521 3.16034 12.4531 3.82812C13.4541 4.49585 14.2344 5.44556 14.6963 6.55707C15.1572 7.66858 15.2783 8.89191 15.0449 10.0723C14.8105 11.2527 14.2314 12.3372 13.3809 13.1885C12.5303 14.0399 11.4463 14.6198 10.2666 14.8549C9.08594 15.0901 7.8623 14.97 6.75098 14.5097C5.63867 14.0494 4.68848 13.2697 4.01953 12.2692C3.35059 11.2687 2.99414 10.0923 2.99414 8.88892C3.00098 7.27869 3.64355 5.73645 4.78223 4.59735C5.91992 3.45825 7.46191 2.81433 9.07227 2.8056ZM9.07227 1.66669C7.64355 1.66669 6.24707 2.09027 5.05957 2.88385C3.87207 3.67743 2.94629 4.80542 2.39941 6.12506C1.85254 7.44476 1.70996 8.89691 1.98828 10.2979C2.2666 11.6989 2.95508 12.9857 3.96484 13.9958C4.97461 15.0059 6.26172 15.6937 7.66309 15.9724C9.06348 16.251 10.5156 16.108 11.8359 15.5614C13.1553 15.0148 14.2832 14.0891 15.0771 12.9014C15.8701 11.7137 16.2939 10.3173 16.2939 8.88892C16.2939 6.97345 15.5332 5.13647 14.1787 3.78204C12.8242 2.42761 10.9873 1.66669 9.07227 1.66669Z" fill="#121212" fill-opacity="1.000000" fill-rule="nonzero"/>
		<path id="Vector" d="M19.4453 18.4945L15.3506 14.3723L14.5615 15.1556L18.6562 19.2778C18.707 19.3296 18.7686 19.3707 18.8359 19.3989C18.9033 19.4271 18.9756 19.4418 19.0488 19.442C19.1211 19.4423 19.1934 19.4281 19.2617 19.4004C19.3291 19.3728 19.3906 19.332 19.4424 19.2806C19.4941 19.2291 19.5352 19.168 19.5635 19.1007C19.5918 19.0333 19.6064 18.9611 19.6064 18.8881C19.6064 18.8151 19.5928 18.7428 19.5645 18.6753C19.5371 18.6077 19.4961 18.5463 19.4453 18.4945Z" fill="#121212" fill-opacity="1.000000" fill-rule="nonzero"/>
	</g>
</svg>
