<svg width="14.500000" height="14.500000" viewBox="0 0 14.5 14.5" fill="none" xmlns="http://www.w3.org/2000/svg" xmlns:xlink="http://www.w3.org/1999/xlink">
	<desc>
			Created with Pixso.
	</desc>
	<defs>
		<clipPath id="clip301_12108">
			<rect id="clarity:chat-bubble-line" width="14.500000" height="14.500000" fill="white" fill-opacity="0"/>
		</clipPath>
	</defs>
	<rect id="clarity:chat-bubble-line" width="14.500000" height="14.500000" fill="#FFFFFF" fill-opacity="0"/>
	<g clip-path="url(#clip301_12108)">
		<path id="Vector" d="M7.25 1.00696C3.69727 1.00696 0.805664 3.53638 0.805664 6.64587C0.805664 9.75525 3.69727 12.2848 7.25 12.2848C7.91504 12.2839 8.57617 12.1918 9.21582 12.0109L11.4434 13.4286C11.5039 13.4677 11.5742 13.4896 11.6465 13.4922C11.7188 13.4948 11.79 13.4778 11.8535 13.4432C11.917 13.4086 11.9697 13.3575 12.0068 13.2955C12.0439 13.2334 12.0635 13.1625 12.0635 13.0903L12.0635 10.3796C12.5674 9.89612 12.9697 9.31677 13.2461 8.67554C13.5225 8.0343 13.668 7.34424 13.6748 6.64587C13.6943 3.53638 10.8027 1.00696 7.25 1.00696ZM11.3945 9.91235C11.3545 9.94995 11.3223 9.99536 11.2998 10.046C11.2773 10.0966 11.2656 10.1511 11.2656 10.2064L11.2656 12.3572L9.50195 11.2335C9.45215 11.2024 9.39746 11.1823 9.33887 11.1747C9.28125 11.167 9.22266 11.172 9.16699 11.1892C8.54688 11.382 7.90039 11.4797 7.25 11.4791C4.14062 11.4791 1.61133 9.31226 1.61133 6.64587C1.61133 3.97949 4.14062 1.8125 7.25 1.8125C10.3594 1.8125 12.8887 3.97949 12.8887 6.64587C12.8799 7.26416 12.7422 7.87378 12.4854 8.43604C12.2275 8.99841 11.8564 9.5011 11.3945 9.91235Z" fill="#FFFDF5" fill-opacity="1.000000" fill-rule="nonzero"/>
		<path id="Vector" d="M10.0693 6.24304L4.42969 6.24304C4.32324 6.24304 4.2207 6.28552 4.14551 6.36096C4.06934 6.43652 4.02734 6.53894 4.02734 6.64587C4.02734 6.75269 4.06934 6.8551 4.14551 6.93066C4.2207 7.0061 4.32324 7.04858 4.42969 7.04858L10.0693 7.04858C10.1758 7.04858 10.2783 7.0061 10.3535 6.93066C10.4297 6.8551 10.4717 6.75269 10.4717 6.64587C10.4717 6.53894 10.4297 6.43652 10.3535 6.36096C10.2783 6.28552 10.1758 6.24304 10.0693 6.24304Z" fill="#FFFDF5" fill-opacity="1.000000" fill-rule="nonzero"/>
		<path id="Vector" d="M8.76074 8.25696L5.73926 8.25696C5.63281 8.25696 5.53027 8.29944 5.45508 8.37488C5.37891 8.45044 5.33691 8.55286 5.33691 8.65979C5.33691 8.7666 5.37891 8.86902 5.45508 8.94458C5.53027 9.02002 5.63281 9.0625 5.73926 9.0625L8.76074 9.0625C8.86719 9.0625 8.96973 9.02002 9.04492 8.94458C9.12109 8.86902 9.16309 8.7666 9.16309 8.65979C9.16309 8.55286 9.12109 8.45044 9.04492 8.37488C8.96973 8.29944 8.86719 8.25696 8.76074 8.25696Z" fill="#FFFDF5" fill-opacity="1.000000" fill-rule="nonzero"/>
		<path id="Vector" d="M4.54297 5.03467L9.95703 5.03467C10.0635 5.03467 10.166 4.99219 10.2412 4.91675C10.3174 4.84119 10.3594 4.73877 10.3594 4.63196C10.3594 4.52502 10.3174 4.42261 10.2412 4.34705C10.166 4.27161 10.0635 4.22913 9.95703 4.22913L4.54297 4.22913C4.43652 4.22913 4.33398 4.27161 4.25879 4.34705C4.18262 4.42261 4.14062 4.52502 4.14062 4.63196C4.14062 4.73877 4.18262 4.84119 4.25879 4.91675C4.33398 4.99219 4.43652 5.03467 4.54297 5.03467Z" fill="#FFFDF5" fill-opacity="1.000000" fill-rule="nonzero"/>
	</g>
</svg>
