<svg width="20.000000" height="20.000000" viewBox="0 0 20 20" fill="none" xmlns="http://www.w3.org/2000/svg" xmlns:xlink="http://www.w3.org/1999/xlink">
	<desc>
			Created with Pixso.
	</desc>
	<defs>
		<clipPath id="clip59_24">
			<rect id="clarity:avatar-line" width="20.000000" height="20.000000" fill="white" fill-opacity="0"/>
		</clipPath>
	</defs>
	<rect id="clarity:avatar-line" width="20.000000" height="20.000000" fill="#FFFFFF" fill-opacity="0"/>
	<g clip-path="url(#clip59_24)">
		<path id="Vector" d="M10 9.44446C10.7695 9.44446 11.5215 9.21637 12.1611 8.78906C12.8008 8.36176 13.2988 7.75439 13.5928 7.04376C13.8877 6.33319 13.9648 5.55127 13.8145 4.79688C13.6641 4.04254 13.2939 3.34961 12.75 2.80573C12.2061 2.26184 11.5137 1.89148 10.7588 1.74139C10.0049 1.59137 9.22266 1.6684 8.51172 1.96271C7.80176 2.25708 7.19434 2.75549 6.7666 3.39502C6.33984 4.03455 6.11133 4.78644 6.11133 5.5556C6.11133 6.58698 6.52148 7.57611 7.25 8.30542C7.97949 9.03473 8.96875 9.44446 10 9.44446ZM10 2.77777C10.5498 2.77777 11.0869 2.94073 11.5439 3.24591C12 3.55115 12.3564 3.98499 12.5664 4.49255C12.7764 5.00012 12.832 5.55865 12.7246 6.09747C12.6172 6.63635 12.3525 7.13129 11.9648 7.51978C11.5762 7.90826 11.0811 8.17279 10.542 8.27997C10.0029 8.38715 9.44434 8.33215 8.9375 8.12189C8.42969 7.91168 7.99609 7.5556 7.69043 7.09882C7.38574 6.64203 7.22266 6.10498 7.22266 5.5556C7.22266 4.81885 7.51465 4.1123 8.03613 3.59137C8.55664 3.07043 9.26367 2.77777 10 2.77777Z" fill="#121212" fill-opacity="1.000000" fill-rule="nonzero"/>
		<path id="Vector" d="M16.9277 13.5389C16.0361 12.5972 14.9629 11.8472 13.7725 11.3345C12.5811 10.822 11.2988 10.5576 10.002 10.5576C8.70605 10.5576 7.42285 10.822 6.23242 11.3345C5.04199 11.8472 3.96875 12.5972 3.07715 13.5389C2.88379 13.7452 2.77734 14.0173 2.77734 14.3L2.77734 17.2222C2.77734 17.5168 2.89453 17.7996 3.10254 18.0079C3.31152 18.2163 3.59375 18.3334 3.88867 18.3334L16.1104 18.3334C16.4053 18.3334 16.6875 18.2163 16.8965 18.0079C17.1045 17.7996 17.2217 17.5168 17.2217 17.2222L17.2217 14.3C17.2236 14.0181 17.1182 13.746 16.9277 13.5389ZM16.1104 17.2222L3.88867 17.2222L3.88867 14.2944C4.67578 13.4654 5.62402 12.8052 6.67383 12.3541C7.72461 11.9029 8.85645 11.6702 10 11.6702C11.1426 11.6702 12.2744 11.9029 13.3252 12.3541C14.376 12.8052 15.3232 13.4654 16.1104 14.2944L16.1104 17.2222Z" fill="#121212" fill-opacity="1.000000" fill-rule="nonzero"/>
	</g>
</svg>
