<svg width="20.000000" height="20.000000" viewBox="0 0 20 20" fill="none" xmlns="http://www.w3.org/2000/svg" xmlns:xlink="http://www.w3.org/1999/xlink">
	<desc>
			Created with Pixso.
	</desc>
	<defs>
		<clipPath id="clip276_256">
			<rect id="ep:arrow-right" width="20.000000" height="20.000000" fill="white" fill-opacity="0"/>
		</clipPath>
	</defs>
	<rect id="ep:arrow-right" width="20.000000" height="20.000000" fill="#FFFFFF" fill-opacity="0"/>
	<g clip-path="url(#clip276_256)">
		<path id="Vector" d="M6.65723 2.91626C6.54883 3.02783 6.4873 3.17773 6.4873 3.33374C6.4873 3.48975 6.54883 3.63965 6.65723 3.75122L12.749 10L6.65723 16.2474C6.54883 16.3591 6.4873 16.5089 6.4873 16.6649C6.4873 16.821 6.54883 16.9708 6.65723 17.0825C6.70996 17.1368 6.77344 17.1802 6.84375 17.2097C6.91406 17.2393 6.98926 17.2544 7.06445 17.2544C7.14062 17.2544 7.21582 17.2393 7.28613 17.2097C7.35645 17.1802 7.41895 17.1368 7.47266 17.0825L13.9502 10.4363C14.0635 10.3195 14.127 10.163 14.127 10C14.127 9.83704 14.0635 9.68042 13.9502 9.56372L7.47266 2.91748C7.41895 2.86304 7.35645 2.81982 7.28613 2.79028C7.21582 2.76074 7.14062 2.74548 7.06445 2.74548C6.98926 2.74548 6.91406 2.76074 6.84375 2.79028C6.77344 2.81982 6.70996 2.86304 6.65723 2.91748L6.65723 2.91626Z" fill="#514A7E" fill-opacity="1.000000" fill-rule="nonzero"/>
	</g>
</svg>
