<svg width="26.666016" height="26.808594" viewBox="0 0 26.666 26.8086" fill="none" xmlns="http://www.w3.org/2000/svg" xmlns:xlink="http://www.w3.org/1999/xlink">
	<desc>
			Created with Pixso.
	</desc>
	<defs/>
	<path id="Vector" d="M13.6826 12.0664C12.7451 12.0566 11.832 11.77 11.0576 11.2417C10.2822 10.7139 9.68164 9.96875 9.33008 9.1001C8.97754 8.23145 8.89062 7.27783 9.08008 6.35986C9.26855 5.44141 9.72461 4.6001 10.3916 3.94043C11.0576 3.28125 11.9043 2.83398 12.8242 2.65479C13.7441 2.4751 14.6963 2.57227 15.5615 2.93311C16.4268 3.29395 17.165 3.90283 17.6855 4.68311C18.2051 5.46289 18.4824 6.37939 18.4824 7.31641C18.4736 8.58252 17.9639 9.79297 17.0635 10.6831C16.1641 11.5737 14.9482 12.0713 13.6826 12.0664ZM13.6826 4.2334C13.0752 4.24316 12.4834 4.43213 11.9834 4.77686C11.4824 5.12158 11.0957 5.60693 10.8701 6.1709C10.6436 6.73535 10.5898 7.35352 10.7148 7.94824C10.8389 8.54297 11.1367 9.08789 11.5693 9.51416C12.0029 9.93994 12.5527 10.229 13.1494 10.3438C13.7461 10.459 14.3633 10.395 14.9238 10.1602C15.4844 9.92529 15.9629 9.53027 16.2998 9.02441C16.6357 8.51855 16.8154 7.92432 16.8154 7.31641C16.8066 6.49316 16.4727 5.70605 15.8857 5.12842C15.2979 4.55078 14.5059 4.229 13.6826 4.2334Z" fill="#514A7E" fill-opacity="1.000000" fill-rule="nonzero"/>
	<path id="Vector" d="M13.6826 12.0664C12.7451 12.0566 11.832 11.77 11.0576 11.2417C10.2822 10.7139 9.68164 9.96875 9.33008 9.1001C8.97754 8.23145 8.89062 7.27783 9.08008 6.35986C9.26855 5.44141 9.72461 4.6001 10.3916 3.94043C11.0576 3.28125 11.9043 2.83398 12.8242 2.65479C13.7441 2.4751 14.6963 2.57227 15.5615 2.93311C16.4268 3.29395 17.165 3.90283 17.6855 4.68311C18.2051 5.46289 18.4824 6.37939 18.4824 7.31641C18.4736 8.58252 17.9639 9.79297 17.0635 10.6831C16.1641 11.5737 14.9482 12.0713 13.6826 12.0664ZM13.6826 4.2334C13.0752 4.24316 12.4834 4.43213 11.9834 4.77686C11.4824 5.12158 11.0957 5.60693 10.8701 6.1709C10.6436 6.73535 10.5898 7.35352 10.7148 7.94824C10.8389 8.54297 11.1367 9.08789 11.5693 9.51416C12.0029 9.93994 12.5527 10.229 13.1494 10.3438C13.7461 10.459 14.3633 10.395 14.9238 10.1602C15.4844 9.92529 15.9629 9.53027 16.2998 9.02441C16.6357 8.51855 16.8154 7.92432 16.8154 7.31641C16.8066 6.49316 16.4727 5.70605 15.8857 5.12842C15.2979 4.55078 14.5059 4.229 13.6826 4.2334Z" fill="#514A7E" fill-opacity="1.000000" fill-rule="nonzero"/>
	<path id="Vector" d="M16.5918 13.1836C12.8955 12.54 9.08984 13.1255 5.75781 14.8501C5.52148 14.9814 5.3252 15.1753 5.19141 15.4102C5.05859 15.6455 4.99121 15.9131 5 16.1836L5 19.1499C5 19.3711 5.08789 19.583 5.24414 19.7393C5.40039 19.8955 5.6123 19.9834 5.83301 19.9834C6.05371 19.9834 6.26562 19.8955 6.42188 19.7393C6.57812 19.583 6.66602 19.3711 6.66602 19.1499L6.66602 16.2915C9.75586 14.7412 13.2695 14.2495 16.666 14.8916L16.5918 13.1836Z" fill="#514A7E" fill-opacity="1.000000" fill-rule="nonzero"/>
	<path id="Vector" d="M25.833 16.8086L20.249 16.8086L20.249 15.5752C20.249 15.354 20.1611 15.1421 20.0049 14.9858C19.8486 14.8296 19.6367 14.7417 19.416 14.7417C19.1953 14.7417 18.9834 14.8296 18.8271 14.9858C18.6709 15.1421 18.583 15.354 18.583 15.5752L18.583 16.8086L12.499 16.8086C12.2783 16.8086 12.0664 16.896 11.9102 17.0522C11.7539 17.2085 11.666 17.4209 11.666 17.6416L11.666 25.9751C11.666 26.1963 11.7539 26.4082 11.9102 26.5645C12.0664 26.7207 12.2783 26.8086 12.499 26.8086L25.833 26.8086C26.0537 26.8086 26.2656 26.7207 26.4219 26.5645C26.5781 26.4082 26.666 26.1963 26.666 25.9751L26.666 17.6416C26.666 17.4209 26.5781 17.2085 26.4219 17.0522C26.2656 16.896 26.0537 16.8086 25.833 16.8086ZM24.999 25.1416L13.333 25.1416L13.333 18.4751L18.583 18.4751L18.583 18.8169C18.583 19.0376 18.6709 19.2495 18.8271 19.4058C18.9834 19.562 19.1953 19.6499 19.416 19.6499C19.6367 19.6499 19.8486 19.562 20.0049 19.4058C20.1611 19.2495 20.249 19.0376 20.249 18.8169L20.249 18.4751L24.999 18.4751L24.999 25.1416Z" fill="#514A7E" fill-opacity="1.000000" fill-rule="nonzero"/>
	<path id="Vector" d="M16.5088 21.3252L21.4756 21.3252L21.4756 22.4917L16.5088 22.4917L16.5088 21.3252Z" fill="#514A7E" fill-opacity="1.000000" fill-rule="nonzero"/>
	<path id="Vector" d="M7.36621 8.6748C5.05957 8.71338 2.79199 9.28369 0.741211 10.3413C0.518555 10.4595 0.332031 10.6353 0.201172 10.8511C0.0703125 11.0669 0.000976562 11.3145 0 11.5664L0 14.1499C0 14.3706 0.0878906 14.583 0.244141 14.7393C0.400391 14.8955 0.612305 14.9829 0.833008 14.9829C1.05469 14.9829 1.2666 14.8955 1.42285 14.7393C1.5791 14.583 1.66699 14.3706 1.66699 14.1499L1.66699 11.7329C3.62598 10.7578 5.7959 10.2798 7.9834 10.3413C7.69727 9.81934 7.48926 9.25781 7.36621 8.6748Z" fill="#514A7E" fill-opacity="1.000000" fill-rule="nonzero"/>
	<path id="Vector" d="M25.9248 10.3335C24.085 9.36865 22.0635 8.80078 19.9912 8.66699C19.8691 9.24854 19.6641 9.81006 19.3828 10.3335C21.335 10.3804 23.2529 10.8584 24.999 11.7339L24.999 14.1504C24.999 14.3716 25.0869 14.5835 25.2432 14.7397C25.3994 14.896 25.6113 14.9839 25.833 14.9839C26.0537 14.9839 26.2656 14.896 26.4219 14.7397C26.5781 14.5835 26.666 14.3716 26.666 14.1504L26.666 11.5669C26.667 11.3135 26.5977 11.0645 26.4668 10.8472C26.3359 10.6299 26.1484 10.4521 25.9248 10.3335Z" fill="#514A7E" fill-opacity="1.000000" fill-rule="nonzero"/>
	<path id="Vector" d="M7.2168 7.31641L7.2168 6.7583C6.56445 6.6709 5.96973 6.33496 5.55859 5.8208C5.14746 5.30664 4.9502 4.65332 5.00781 3.99707C5.06641 3.34131 5.375 2.73291 5.87012 2.29834C6.36523 1.86426 7.00879 1.63818 7.66699 1.6665C8.35156 1.66553 9.00879 1.93164 9.5 2.4082C9.93359 2.05078 10.4092 1.74854 10.917 1.5083C10.3496 0.856445 9.59863 0.391602 8.7627 0.174805C7.92578 -0.0415039 7.04297 0.000488281 6.23145 0.29541C5.41895 0.59082 4.71582 1.125 4.21289 1.82764C3.71094 2.53076 3.43359 3.36914 3.41699 4.2334C3.43457 5.29053 3.8457 6.30322 4.56934 7.07373C5.29395 7.84424 6.2793 8.31689 7.33398 8.3999C7.2627 8.04297 7.22363 7.68018 7.2168 7.31641Z" fill="#514A7E" fill-opacity="1.000000" fill-rule="nonzero"/>
	<path id="Vector" d="M18.9746 0C18.4014 0 17.835 0.114258 17.3066 0.336426C16.7793 0.558105 16.3008 0.882812 15.8994 1.2915C16.4629 1.49561 16.9951 1.77637 17.4824 2.125C17.8721 1.85498 18.3271 1.6958 18.7998 1.66357C19.2715 1.63184 19.7441 1.729 20.166 1.94482C20.5879 2.16016 20.9424 2.48633 21.1934 2.8877C21.4443 3.28955 21.582 3.75146 21.5908 4.2251C21.5859 4.71143 21.4434 5.18652 21.1787 5.59473C20.915 6.00342 20.541 6.32861 20.0996 6.5332C20.1328 6.79053 20.1494 7.04932 20.1494 7.30859C20.1475 7.64355 20.1191 7.97754 20.0664 8.30859C20.9736 8.0752 21.7793 7.54785 22.3564 6.80957C22.9336 6.0708 23.251 5.16211 23.2578 4.2251C23.2471 3.09766 22.79 2.02051 21.9873 1.229C21.1846 0.4375 20.1016 -0.00439453 18.9746 0Z" fill="#514A7E" fill-opacity="1.000000" fill-rule="nonzero"/>
</svg>
