<svg width="17.775391" height="16.035217" viewBox="0 0 17.7754 16.0352" fill="none" xmlns="http://www.w3.org/2000/svg" xmlns:xlink="http://www.w3.org/1999/xlink">
	<desc>
			Created with Pixso.
	</desc>
	<defs/>
	<path id="Vector" d="M8.8877 16.0352C8.76465 16.0347 8.64551 15.9937 8.54883 15.9185C5.45996 13.5185 3.33203 11.4518 1.84277 9.41296C-0.0566406 6.80737 -0.490234 4.40186 0.553711 2.26294C1.29883 0.735168 3.4375 -0.514832 5.9375 0.212952C7.12988 0.557251 8.16895 1.29559 8.8877 2.30737C9.60547 1.29559 10.6455 0.557251 11.8379 0.212952C14.332 -0.503723 16.4766 0.735168 17.2207 2.26294C18.2656 4.40186 17.832 6.80737 15.9316 9.41296C14.4434 11.4518 12.3154 13.5185 9.22656 15.9185C9.12891 15.9937 9.00977 16.0347 8.8877 16.0352ZM4.51562 1.11847C3.91992 1.09534 3.33008 1.23462 2.80859 1.52142C2.28711 1.80817 1.85352 2.23163 1.55371 2.74628C0.693359 4.51294 1.08203 6.47961 2.74316 8.75183C4.50879 11.0288 6.5752 13.0549 8.8877 14.7741C11.1992 13.0566 13.2666 11.0324 15.0322 8.75739C16.6982 6.47961 17.082 4.51294 16.2207 2.75183C15.665 1.64075 13.999 0.757385 12.1426 1.2796C11.5479 1.45544 10.9961 1.75391 10.5234 2.15576C10.0508 2.55762 9.66797 3.05402 9.39844 3.61292C9.35645 3.71484 9.28516 3.802 9.19434 3.86334C9.10254 3.92468 8.99512 3.9574 8.88477 3.9574C8.77441 3.9574 8.66699 3.92468 8.5752 3.86334C8.4834 3.802 8.41309 3.71484 8.37109 3.61292C8.10352 3.05261 7.7207 2.55505 7.24805 2.15295C6.77539 1.75085 6.22266 1.45325 5.62598 1.2796C5.26562 1.17474 4.8916 1.12048 4.51562 1.11847Z" fill="#121212" fill-opacity="1.000000" fill-rule="nonzero"/>
</svg>
