<svg width="9.208008" height="8.787354" viewBox="0 0 9.20801 8.78735" fill="none" xmlns="http://www.w3.org/2000/svg" xmlns:xlink="http://www.w3.org/1999/xlink">
	<desc>
			Created with Pixso.
	</desc>
	<defs/>
	<path id="Vector" d="M8.95898 3.98535C9.0625 3.90845 9.13965 3.80127 9.17871 3.67871C9.21777 3.55591 9.21777 3.42407 9.17773 3.30176C9.13867 3.1792 9.06152 3.07202 8.95801 2.99536C8.85449 2.9187 8.72949 2.87646 8.60059 2.87427L6.10059 2.77979C6.08887 2.77905 6.07715 2.77466 6.06738 2.76733C6.05762 2.75977 6.0498 2.74976 6.0459 2.73828L5.18164 0.404785C5.13867 0.286133 5.05957 0.183594 4.95605 0.111328C4.85254 0.0388184 4.72852 0 4.60254 0C4.47559 0 4.35254 0.0388184 4.24902 0.111328C4.14551 0.183594 4.06641 0.286133 4.02344 0.404785L3.16211 2.74658C3.1582 2.75806 3.15039 2.76831 3.14062 2.77563C3.13086 2.78296 3.11914 2.78735 3.10645 2.78833L0.606445 2.88257C0.477539 2.88477 0.353516 2.927 0.25 3.00366C0.146484 3.08032 0.0693359 3.1875 0.0292969 3.31006C-0.00976562 3.43262 -0.00976562 3.56445 0.0292969 3.68701C0.0683594 3.80957 0.145508 3.91699 0.248047 3.9939L2.20898 5.5354C2.21875 5.54321 2.22656 5.55371 2.23047 5.56543C2.23438 5.57739 2.23438 5.59009 2.23145 5.60205L1.55664 7.9939C1.52148 8.11548 1.52539 8.24512 1.56641 8.36499C1.60742 8.48486 1.68457 8.58887 1.78711 8.66333C1.88965 8.73779 2.0127 8.77856 2.13965 8.78052C2.2666 8.78247 2.39062 8.74536 2.49512 8.67432L4.56738 7.2854C4.57812 7.27832 4.58984 7.27466 4.60254 7.27466C4.61523 7.27466 4.62695 7.27832 4.63672 7.2854L6.70898 8.67432C6.8125 8.7478 6.93652 8.78735 7.06348 8.78735C7.19043 8.78735 7.31445 8.7478 7.41797 8.67432C7.52051 8.60059 7.59766 8.49707 7.63867 8.37769C7.67969 8.2583 7.68359 8.12891 7.64844 8.00757L6.96777 5.60767C6.96387 5.5957 6.96387 5.58276 6.96875 5.5708C6.97266 5.55884 6.97949 5.54858 6.99023 5.54102L8.95898 3.98535Z" fill="#514A7E" fill-opacity="1.000000" fill-rule="nonzero"/>
</svg>
