<svg width="55.000000" height="10.000000" viewBox="0 0 55 10" fill="none" xmlns="http://www.w3.org/2000/svg" xmlns:xlink="http://www.w3.org/1999/xlink">
	<desc>
			Created with Pixso.
	</desc>
	<defs>
		<clipPath id="clip81_2882">
			<rect id="clarity:favorite-solid" width="10.000000" height="10.000000" transform="translate(45.000000 0.000000)" fill="white" fill-opacity="0"/>
		</clipPath>
		<clipPath id="clip81_2885">
			<rect id="clarity:favorite-solid" width="10.000000" height="10.000000" transform="translate(15.000000 0.000000)" fill="white" fill-opacity="0"/>
		</clipPath>
		<clipPath id="clip81_2888">
			<rect id="clarity:favorite-solid" width="10.000000" height="10.000000" transform="translate(30.000000 0.000000)" fill="white" fill-opacity="0"/>
		</clipPath>
		<clipPath id="clip81_2891">
			<rect id="clarity:favorite-solid" width="10.000000" height="10.000000" fill="white" fill-opacity="0"/>
		</clipPath>
	</defs>
	<g clip-path="url(#clip81_2882)">
		<path id="Vector" d="M54.4443 4.66089C54.5479 4.58398 54.625 4.47681 54.6641 4.35425C54.7031 4.23145 54.7031 4.09961 54.6631 3.97729C54.624 3.85474 54.5469 3.74756 54.4434 3.6709C54.3398 3.59424 54.2148 3.552 54.0859 3.5498L51.5859 3.45532C51.5742 3.45459 51.5625 3.4502 51.5527 3.44287C51.543 3.4353 51.5352 3.42529 51.5312 3.41382L50.667 1.08032C50.624 0.96167 50.5449 0.859131 50.4414 0.786865C50.3379 0.714355 50.2139 0.675537 50.0879 0.675537C49.9609 0.675537 49.8379 0.714355 49.7344 0.786865C49.6309 0.859131 49.5518 0.96167 49.5088 1.08032L48.6475 3.42212C48.6436 3.43359 48.6357 3.44385 48.626 3.45117C48.6162 3.4585 48.6045 3.46289 48.5918 3.46387L46.0918 3.55811C45.9629 3.5603 45.8389 3.60254 45.7354 3.6792C45.6318 3.75586 45.5547 3.86304 45.5146 3.9856C45.4756 4.10815 45.4756 4.23999 45.5146 4.36255C45.5537 4.48511 45.6309 4.59253 45.7334 4.66943L47.6943 6.21094C47.7041 6.21875 47.7119 6.22925 47.7158 6.24097C47.7197 6.25293 47.7197 6.26562 47.7168 6.27759L47.042 8.66943C47.0068 8.79102 47.0107 8.92065 47.0518 9.04053C47.0928 9.1604 47.1699 9.2644 47.2725 9.33887C47.375 9.41333 47.498 9.4541 47.625 9.45605C47.752 9.45801 47.876 9.4209 47.9805 9.34985L50.0527 7.96094C50.0635 7.95386 50.0752 7.9502 50.0879 7.9502C50.1006 7.9502 50.1123 7.95386 50.1221 7.96094L52.1943 9.34985C52.2979 9.42334 52.4219 9.46289 52.5488 9.46289C52.6758 9.46289 52.7998 9.42334 52.9033 9.34985C53.0059 9.27612 53.083 9.17261 53.124 9.05322C53.165 8.93384 53.1689 8.80444 53.1338 8.68311L52.4531 6.2832C52.4492 6.27124 52.4492 6.2583 52.4541 6.24634C52.458 6.23438 52.4648 6.22412 52.4756 6.21655L54.4443 4.66089Z" fill="#514A7E" fill-opacity="1.000000" fill-rule="nonzero"/>
	</g>
	<g clip-path="url(#clip81_2885)">
		<path id="Vector" d="M24.4443 4.66089C24.5479 4.58398 24.625 4.47681 24.6641 4.35425C24.7031 4.23145 24.7031 4.09961 24.6631 3.97729C24.624 3.85474 24.5469 3.74756 24.4434 3.6709C24.3398 3.59424 24.2148 3.552 24.0859 3.5498L21.5859 3.45532C21.5742 3.45459 21.5625 3.4502 21.5527 3.44287C21.543 3.4353 21.5352 3.42529 21.5312 3.41382L20.667 1.08032C20.624 0.96167 20.5449 0.859131 20.4414 0.786865C20.3379 0.714355 20.2139 0.675537 20.0879 0.675537C19.9609 0.675537 19.8379 0.714355 19.7344 0.786865C19.6309 0.859131 19.5518 0.96167 19.5088 1.08032L18.6475 3.42212C18.6436 3.43359 18.6357 3.44385 18.626 3.45117C18.6162 3.4585 18.6045 3.46289 18.5918 3.46387L16.0918 3.55811C15.9629 3.5603 15.8389 3.60254 15.7354 3.6792C15.6318 3.75586 15.5547 3.86304 15.5146 3.9856C15.4756 4.10815 15.4756 4.23999 15.5146 4.36255C15.5537 4.48511 15.6309 4.59253 15.7334 4.66943L17.6943 6.21094C17.7041 6.21875 17.7119 6.22925 17.7158 6.24097C17.7197 6.25293 17.7197 6.26562 17.7168 6.27759L17.042 8.66943C17.0068 8.79102 17.0107 8.92065 17.0518 9.04053C17.0928 9.1604 17.1699 9.2644 17.2725 9.33887C17.375 9.41333 17.498 9.4541 17.625 9.45605C17.752 9.45801 17.876 9.4209 17.9805 9.34985L20.0527 7.96094C20.0635 7.95386 20.0752 7.9502 20.0879 7.9502C20.1006 7.9502 20.1123 7.95386 20.1221 7.96094L22.1943 9.34985C22.2979 9.42334 22.4219 9.46289 22.5488 9.46289C22.6758 9.46289 22.7998 9.42334 22.9033 9.34985C23.0059 9.27612 23.083 9.17261 23.124 9.05322C23.165 8.93384 23.1689 8.80444 23.1338 8.68311L22.4531 6.2832C22.4492 6.27124 22.4492 6.2583 22.4541 6.24634C22.458 6.23438 22.4648 6.22412 22.4756 6.21655L24.4443 4.66089Z" fill="#514A7E" fill-opacity="1.000000" fill-rule="nonzero"/>
	</g>
	<g clip-path="url(#clip81_2888)">
		<path id="Vector" d="M39.4443 4.66089C39.5479 4.58398 39.625 4.47681 39.6641 4.35425C39.7031 4.23145 39.7031 4.09961 39.6631 3.97729C39.624 3.85474 39.5469 3.74756 39.4434 3.6709C39.3398 3.59424 39.2148 3.552 39.0859 3.5498L36.5859 3.45532C36.5742 3.45459 36.5625 3.4502 36.5527 3.44287C36.543 3.4353 36.5352 3.42529 36.5312 3.41382L35.667 1.08032C35.624 0.96167 35.5449 0.859131 35.4414 0.786865C35.3379 0.714355 35.2139 0.675537 35.0879 0.675537C34.9609 0.675537 34.8379 0.714355 34.7344 0.786865C34.6309 0.859131 34.5518 0.96167 34.5088 1.08032L33.6475 3.42212C33.6436 3.43359 33.6357 3.44385 33.626 3.45117C33.6162 3.4585 33.6045 3.46289 33.5918 3.46387L31.0918 3.55811C30.9629 3.5603 30.8389 3.60254 30.7354 3.6792C30.6318 3.75586 30.5547 3.86304 30.5146 3.9856C30.4756 4.10815 30.4756 4.23999 30.5146 4.36255C30.5537 4.48511 30.6309 4.59253 30.7334 4.66943L32.6943 6.21094C32.7041 6.21875 32.7119 6.22925 32.7158 6.24097C32.7197 6.25293 32.7197 6.26562 32.7168 6.27759L32.042 8.66943C32.0068 8.79102 32.0107 8.92065 32.0518 9.04053C32.0928 9.1604 32.1699 9.2644 32.2725 9.33887C32.375 9.41333 32.498 9.4541 32.625 9.45605C32.752 9.45801 32.876 9.4209 32.9805 9.34985L35.0527 7.96094C35.0635 7.95386 35.0752 7.9502 35.0879 7.9502C35.1006 7.9502 35.1123 7.95386 35.1221 7.96094L37.1943 9.34985C37.2979 9.42334 37.4219 9.46289 37.5488 9.46289C37.6758 9.46289 37.7998 9.42334 37.9033 9.34985C38.0059 9.27612 38.083 9.17261 38.124 9.05322C38.165 8.93384 38.1689 8.80444 38.1338 8.68311L37.4531 6.2832C37.4492 6.27124 37.4492 6.2583 37.4541 6.24634C37.458 6.23438 37.4648 6.22412 37.4756 6.21655L39.4443 4.66089Z" fill="#514A7E" fill-opacity="1.000000" fill-rule="nonzero"/>
	</g>
	<g clip-path="url(#clip81_2891)">
		<path id="Vector" d="M9.44434 4.66089C9.54785 4.58398 9.625 4.47681 9.66406 4.35425C9.70312 4.23145 9.70312 4.09961 9.66309 3.97729C9.62402 3.85474 9.54688 3.74756 9.44336 3.6709C9.33984 3.59424 9.21484 3.552 9.08594 3.5498L6.58594 3.45532C6.57422 3.45459 6.5625 3.4502 6.55273 3.44287C6.54297 3.4353 6.53516 3.42529 6.53125 3.41382L5.66699 1.08032C5.62402 0.96167 5.54492 0.859131 5.44141 0.786865C5.33789 0.714355 5.21387 0.675537 5.08789 0.675537C4.96094 0.675537 4.83789 0.714355 4.73438 0.786865C4.63086 0.859131 4.55176 0.96167 4.50879 1.08032L3.64746 3.42212C3.64355 3.43359 3.63574 3.44385 3.62598 3.45117C3.61621 3.4585 3.60449 3.46289 3.5918 3.46387L1.0918 3.55811C0.962891 3.5603 0.838867 3.60254 0.735352 3.6792C0.631836 3.75586 0.554688 3.86304 0.514648 3.9856C0.475586 4.10815 0.475586 4.23999 0.514648 4.36255C0.553711 4.48511 0.630859 4.59253 0.733398 4.66943L2.69434 6.21094C2.7041 6.21875 2.71191 6.22925 2.71582 6.24097C2.71973 6.25293 2.71973 6.26562 2.7168 6.27759L2.04199 8.66943C2.00684 8.79102 2.01074 8.92065 2.05176 9.04053C2.09277 9.1604 2.16992 9.2644 2.27246 9.33887C2.375 9.41333 2.49805 9.4541 2.625 9.45605C2.75195 9.45801 2.87598 9.4209 2.98047 9.34985L5.05273 7.96094C5.06348 7.95386 5.0752 7.9502 5.08789 7.9502C5.10059 7.9502 5.1123 7.95386 5.12207 7.96094L7.19434 9.34985C7.29785 9.42334 7.42188 9.46289 7.54883 9.46289C7.67578 9.46289 7.7998 9.42334 7.90332 9.34985C8.00586 9.27612 8.08301 9.17261 8.12402 9.05322C8.16504 8.93384 8.16895 8.80444 8.13379 8.68311L7.45312 6.2832C7.44922 6.27124 7.44922 6.2583 7.4541 6.24634C7.45801 6.23438 7.46484 6.22412 7.47559 6.21655L9.44434 4.66089Z" fill="#514A7E" fill-opacity="1.000000" fill-rule="nonzero"/>
	</g>
</svg>
